<?xml version="1.0" encoding="UTF-8"?>
<svg xmlns="http://www.w3.org/2000/svg" xmlns:xlink="http://www.w3.org/1999/xlink" width="100px" height="100px" viewBox="0 0 100 100" version="1.1">
<g id="surface1">
<path style=" stroke:none;fill-rule:nonzero;fill:rgb(26.27451%,29.019608%,32.941176%);fill-opacity:1;" d="M 54.179688 30.976562 L 33.320312 30.976562 L 33.320312 26.027344 C 33.320312 24.878906 34.253906 23.941406 35.402344 23.941406 L 52.097656 23.941406 C 53.246094 23.941406 54.179688 24.878906 54.179688 26.027344 Z M 54.179688 30.976562 "/>
<path style=" stroke:none;fill-rule:nonzero;fill:rgb(100%,80.784314%,32.941176%);fill-opacity:1;" d="M 14.539062 44.761719 C 14.539062 44.761719 22.253906 30.179688 43.75 30.179688 C 65.25 30.179688 72.921875 44.769531 72.921875 44.769531 C 97.917969 44.769531 97.917969 44.769531 97.917969 67.675781 L 10.417969 67.675781 C 6.570312 67.707031 2.085938 63.554688 2.085938 63.554688 L 2.085938 48.929688 L 6.253906 44.761719 Z M 14.539062 44.761719 "/>
<path style=" stroke:none;fill-rule:nonzero;fill:rgb(30.980392%,76.078431%,91.372549%);fill-opacity:1;" d="M 71.53125 42.679688 C 68.476562 38.644531 60.125 30.179688 43.75 30.179688 C 27.367188 30.179688 18.988281 38.648438 15.929688 42.679688 Z M 71.53125 42.679688 "/>
<path style=" stroke:none;fill-rule:nonzero;fill:rgb(23.137255%,68.627451%,85.490196%);fill-opacity:1;" d="M 37.503906 31.058594 L 41.667969 31.058594 L 41.667969 42.675781 L 37.503906 42.675781 Z M 37.503906 31.058594 "/>
<path style=" stroke:none;fill-rule:nonzero;fill:rgb(100%,80.784314%,32.941176%);fill-opacity:1;" d="M 10.378906 69.765625 C 5.851562 69.765625 1.1875 65.5625 0.671875 65.089844 C 0.246094 64.691406 0 64.136719 0 63.554688 L 0 48.929688 C 0 48.375 0.21875 47.84375 0.609375 47.453125 L 4.777344 43.289062 C 5.167969 42.898438 5.699219 42.675781 6.253906 42.675781 L 13.375 42.675781 C 14.347656 41.210938 16.398438 38.515625 19.792969 35.832031 C 24.265625 32.300781 32.050781 28.09375 43.75 28.09375 C 55.457031 28.09375 63.230469 32.304688 67.691406 35.839844 C 71.074219 38.519531 73.121094 41.21875 74.089844 42.6875 C 86.335938 42.691406 92.59375 42.789062 96.199219 46.097656 C 100 49.582031 100 55.628906 100 67.675781 C 100 68.828125 99.070312 69.765625 97.917969 69.765625 Z M 4.167969 62.597656 C 5.59375 63.738281 8.328125 65.59375 10.378906 65.59375 L 10.402344 65.59375 C 10.40625 65.59375 10.414062 65.59375 10.417969 65.59375 L 95.835938 65.59375 C 95.820312 56.414062 95.667969 51.257812 93.386719 49.167969 C 90.859375 46.851562 84.488281 46.851562 72.921875 46.851562 C 72.148438 46.851562 71.4375 46.421875 71.078125 45.738281 C 71.0625 45.710938 69.214844 42.316406 64.945312 38.980469 C 59.230469 34.519531 52.101562 32.261719 43.75 32.261719 C 23.738281 32.261719 16.453125 45.601562 16.378906 45.734375 C 16.019531 46.417969 15.308594 46.84375 14.539062 46.84375 L 7.113281 46.84375 L 4.167969 49.792969 Z M 4.167969 62.597656 "/>
<path style=" stroke:none;fill-rule:nonzero;fill:rgb(26.27451%,29.019608%,32.941176%);fill-opacity:1;" d="M 22.917969 55.226562 C 17.175781 55.226562 12.503906 59.894531 12.503906 65.636719 C 12.503906 71.386719 17.175781 76.058594 22.917969 76.058594 C 28.660156 76.058594 33.335938 71.386719 33.335938 65.636719 C 33.335938 59.894531 28.660156 55.226562 22.917969 55.226562 Z M 22.917969 55.226562 "/>
<path style=" stroke:none;fill-rule:nonzero;fill:rgb(26.27451%,29.019608%,32.941176%);fill-opacity:1;" d="M 77.085938 55.226562 C 71.339844 55.226562 66.667969 59.894531 66.667969 65.636719 C 66.667969 71.386719 71.339844 76.058594 77.085938 76.058594 C 82.828125 76.058594 87.5 71.386719 87.5 65.636719 C 87.5 59.894531 82.828125 55.226562 77.085938 55.226562 Z M 77.085938 55.226562 "/>
<path style=" stroke:none;fill-rule:nonzero;fill:rgb(96.078431%,96.862745%,98.039216%);fill-opacity:1;" d="M 20.835938 65.636719 C 20.835938 66.792969 21.769531 67.726562 22.917969 67.726562 C 24.070312 67.726562 25.003906 66.792969 25.003906 65.636719 C 25.003906 64.488281 24.070312 63.554688 22.917969 63.554688 C 21.769531 63.554688 20.835938 64.488281 20.835938 65.636719 Z M 20.835938 65.636719 "/>
<path style=" stroke:none;fill-rule:nonzero;fill:rgb(26.27451%,29.019608%,32.941176%);fill-opacity:1;" d="M 33.347656 51.027344 C 32.195312 51.027344 31.261719 51.957031 31.261719 53.113281 C 31.261719 54.261719 32.195312 55.195312 33.347656 55.195312 C 34.496094 55.195312 35.429688 54.261719 35.429688 53.113281 C 35.429688 51.957031 34.496094 51.027344 33.347656 51.027344 Z M 33.347656 51.027344 "/>
<path style=" stroke:none;fill-rule:nonzero;fill:rgb(26.27451%,29.019608%,32.941176%);fill-opacity:1;" d="M 37.511719 55.195312 C 36.363281 55.195312 35.429688 56.128906 35.429688 57.277344 C 35.429688 58.429688 36.363281 59.363281 37.511719 59.363281 C 38.664062 59.363281 39.597656 58.429688 39.597656 57.277344 C 39.597656 56.128906 38.664062 55.195312 37.511719 55.195312 Z M 37.511719 55.195312 "/>
<path style=" stroke:none;fill-rule:nonzero;fill:rgb(26.27451%,29.019608%,32.941176%);fill-opacity:1;" d="M 41.679688 51.027344 C 40.53125 51.027344 39.597656 51.957031 39.597656 53.113281 C 39.597656 54.261719 40.53125 55.195312 41.679688 55.195312 C 42.832031 55.195312 43.761719 54.261719 43.761719 53.113281 C 43.761719 51.957031 42.832031 51.027344 41.679688 51.027344 Z M 41.679688 51.027344 "/>
<path style=" stroke:none;fill-rule:nonzero;fill:rgb(26.27451%,29.019608%,32.941176%);fill-opacity:1;" d="M 45.847656 55.195312 C 44.695312 55.195312 43.761719 56.128906 43.761719 57.277344 C 43.761719 58.429688 44.695312 59.363281 45.847656 59.363281 C 46.996094 59.363281 47.929688 58.429688 47.929688 57.277344 C 47.929688 56.128906 46.996094 55.195312 45.847656 55.195312 Z M 45.847656 55.195312 "/>
<path style=" stroke:none;fill-rule:nonzero;fill:rgb(26.27451%,29.019608%,32.941176%);fill-opacity:1;" d="M 50.011719 51.027344 C 48.863281 51.027344 47.929688 51.957031 47.929688 53.113281 C 47.929688 54.261719 48.863281 55.195312 50.011719 55.195312 C 51.164062 55.195312 52.097656 54.261719 52.097656 53.113281 C 52.097656 51.957031 51.164062 51.027344 50.011719 51.027344 Z M 50.011719 51.027344 "/>
<path style=" stroke:none;fill-rule:nonzero;fill:rgb(26.27451%,29.019608%,32.941176%);fill-opacity:1;" d="M 54.179688 55.195312 C 53.03125 55.195312 52.097656 56.128906 52.097656 57.277344 C 52.097656 58.429688 53.03125 59.363281 54.179688 59.363281 C 55.332031 59.363281 56.261719 58.429688 56.261719 57.277344 C 56.261719 56.128906 55.332031 55.195312 54.179688 55.195312 Z M 54.179688 55.195312 "/>
<path style=" stroke:none;fill-rule:nonzero;fill:rgb(26.27451%,29.019608%,32.941176%);fill-opacity:1;" d="M 58.347656 51.027344 C 57.195312 51.027344 56.261719 51.957031 56.261719 53.113281 C 56.261719 54.261719 57.195312 55.195312 58.347656 55.195312 C 59.496094 55.195312 60.429688 54.261719 60.429688 53.113281 C 60.429688 51.957031 59.496094 51.027344 58.347656 51.027344 Z M 58.347656 51.027344 "/>
<path style=" stroke:none;fill-rule:nonzero;fill:rgb(26.27451%,29.019608%,32.941176%);fill-opacity:1;" d="M 62.511719 55.195312 C 61.363281 55.195312 60.429688 56.128906 60.429688 57.277344 C 60.429688 58.429688 61.363281 59.363281 62.511719 59.363281 C 63.664062 59.363281 64.597656 58.429688 64.597656 57.277344 C 64.597656 56.128906 63.664062 55.195312 62.511719 55.195312 Z M 62.511719 55.195312 "/>
<path style=" stroke:none;fill-rule:nonzero;fill:rgb(26.27451%,29.019608%,32.941176%);fill-opacity:1;" d="M 66.679688 51.027344 C 65.53125 51.027344 64.597656 51.957031 64.597656 53.113281 C 64.597656 54.261719 65.53125 55.195312 66.679688 55.195312 C 67.832031 55.195312 68.761719 54.261719 68.761719 53.113281 C 68.761719 51.957031 67.832031 51.027344 66.679688 51.027344 Z M 66.679688 51.027344 "/>
<path style=" stroke:none;fill-rule:nonzero;fill:rgb(96.078431%,96.862745%,98.039216%);fill-opacity:1;" d="M 75 65.636719 C 75 66.792969 75.933594 67.726562 77.085938 67.726562 C 78.234375 67.726562 79.167969 66.792969 79.167969 65.636719 C 79.167969 64.488281 78.234375 63.554688 77.085938 63.554688 C 75.933594 63.554688 75 64.488281 75 65.636719 Z M 75 65.636719 "/>
<path style=" stroke:none;fill-rule:nonzero;fill:rgb(96.078431%,96.862745%,98.039216%);fill-opacity:1;" d="M 99.429688 53.027344 C 99.171875 51.4375 98.796875 50.085938 98.253906 48.929688 L 91.640625 48.929688 C 90.492188 48.929688 89.558594 49.859375 89.558594 51.011719 C 89.558594 52.164062 90.492188 53.09375 91.640625 53.09375 L 98.914062 53.09375 C 99.09375 53.09375 99.265625 53.070312 99.429688 53.027344 Z M 99.429688 53.027344 "/>
<path style=" stroke:none;fill-rule:nonzero;fill:rgb(98.823529%,43.137255%,31.764706%);fill-opacity:1;" d="M 6.253906 42.679688 C 5.699219 42.679688 5.167969 42.898438 4.777344 43.289062 L 0.609375 47.453125 C 0.21875 47.84375 0 48.375 0 48.929688 L 6.253906 48.929688 C 7.402344 48.929688 8.335938 47.996094 8.335938 46.84375 L 8.335938 42.679688 Z M 6.253906 42.679688 "/>
</g>
</svg>
