<?xml version="1.0" encoding="UTF-8"?>
<svg xmlns="http://www.w3.org/2000/svg" xmlns:xlink="http://www.w3.org/1999/xlink" width="15px" height="15px" viewBox="0 0 15 15" version="1.1">
<g id="surface1">
<path style=" stroke:none;fill-rule:nonzero;fill:rgb(26.27451%,29.019608%,32.941176%);fill-opacity:1;" d="M 8.125 4.648438 L 5 4.648438 L 5 3.90625 C 5 3.734375 5.140625 3.59375 5.3125 3.59375 L 7.8125 3.59375 C 7.984375 3.59375 8.125 3.734375 8.125 3.90625 Z M 8.125 4.648438 "/>
<path style=" stroke:none;fill-rule:nonzero;fill:rgb(100%,80.784314%,32.941176%);fill-opacity:1;" d="M 2.179688 6.714844 C 2.179688 6.714844 3.335938 4.527344 6.5625 4.527344 C 9.789062 4.527344 10.9375 6.714844 10.9375 6.714844 C 14.6875 6.714844 14.6875 6.714844 14.6875 10.152344 L 1.5625 10.152344 C 0.984375 10.15625 0.3125 9.53125 0.3125 9.53125 L 0.3125 7.339844 L 0.9375 6.714844 Z M 2.179688 6.714844 "/>
<path style=" stroke:none;fill-rule:nonzero;fill:rgb(30.980392%,76.078431%,91.372549%);fill-opacity:1;" d="M 10.730469 6.402344 C 10.273438 5.796875 9.019531 4.527344 6.5625 4.527344 C 4.105469 4.527344 2.847656 5.796875 2.390625 6.402344 Z M 10.730469 6.402344 "/>
<path style=" stroke:none;fill-rule:nonzero;fill:rgb(23.137255%,68.627451%,85.490196%);fill-opacity:1;" d="M 5.625 4.65625 L 6.25 4.65625 L 6.25 6.402344 L 5.625 6.402344 Z M 5.625 4.65625 "/>
<path style=" stroke:none;fill-rule:nonzero;fill:rgb(100%,80.784314%,32.941176%);fill-opacity:1;" d="M 1.554688 10.464844 C 0.878906 10.464844 0.179688 9.835938 0.101562 9.765625 C 0.0390625 9.703125 0 9.621094 0 9.53125 L 0 7.339844 C 0 7.257812 0.03125 7.175781 0.09375 7.117188 L 0.71875 6.492188 C 0.773438 6.4375 0.855469 6.402344 0.9375 6.402344 L 2.007812 6.402344 C 2.152344 6.179688 2.460938 5.777344 2.96875 5.375 C 3.640625 4.84375 4.804688 4.214844 6.5625 4.214844 C 8.320312 4.214844 9.484375 4.84375 10.15625 5.375 C 10.664062 5.777344 10.96875 6.183594 11.113281 6.402344 C 12.953125 6.40625 13.890625 6.417969 14.429688 6.914062 C 15 7.4375 15 8.34375 15 10.152344 C 15 10.324219 14.859375 10.464844 14.6875 10.464844 Z M 0.625 9.390625 C 0.839844 9.5625 1.25 9.839844 1.554688 9.839844 L 14.375 9.839844 C 14.375 8.460938 14.351562 7.6875 14.007812 7.375 C 13.628906 7.027344 12.671875 7.027344 10.9375 7.027344 C 10.820312 7.027344 10.714844 6.960938 10.664062 6.859375 C 10.660156 6.859375 10.382812 6.347656 9.742188 5.847656 C 8.882812 5.179688 7.8125 4.839844 6.5625 4.839844 C 3.5625 4.839844 2.46875 6.839844 2.457031 6.859375 C 2.402344 6.960938 2.296875 7.027344 2.179688 7.027344 L 1.066406 7.027344 L 0.625 7.46875 Z M 0.625 9.390625 "/>
<path style=" stroke:none;fill-rule:nonzero;fill:rgb(26.27451%,29.019608%,32.941176%);fill-opacity:1;" d="M 3.4375 8.28125 C 2.578125 8.28125 1.875 8.984375 1.875 9.84375 C 1.875 10.710938 2.578125 11.40625 3.4375 11.40625 C 4.296875 11.40625 5 10.710938 5 9.84375 C 5 8.984375 4.296875 8.28125 3.4375 8.28125 Z M 3.4375 8.28125 "/>
<path style=" stroke:none;fill-rule:nonzero;fill:rgb(26.27451%,29.019608%,32.941176%);fill-opacity:1;" d="M 11.5625 8.28125 C 10.703125 8.28125 10 8.984375 10 9.84375 C 10 10.710938 10.703125 11.40625 11.5625 11.40625 C 12.421875 11.40625 13.125 10.710938 13.125 9.84375 C 13.125 8.984375 12.421875 8.28125 11.5625 8.28125 Z M 11.5625 8.28125 "/>
<path style=" stroke:none;fill-rule:nonzero;fill:rgb(96.078431%,96.862745%,98.039216%);fill-opacity:1;" d="M 3.125 9.84375 C 3.125 10.019531 3.265625 10.15625 3.4375 10.15625 C 3.609375 10.15625 3.75 10.019531 3.75 9.84375 C 3.75 9.671875 3.609375 9.53125 3.4375 9.53125 C 3.265625 9.53125 3.125 9.671875 3.125 9.84375 Z M 3.125 9.84375 "/>
<path style=" stroke:none;fill-rule:nonzero;fill:rgb(26.27451%,29.019608%,32.941176%);fill-opacity:1;" d="M 5 7.65625 C 4.828125 7.65625 4.6875 7.792969 4.6875 7.96875 C 4.6875 8.140625 4.828125 8.28125 5 8.28125 C 5.171875 8.28125 5.3125 8.140625 5.3125 7.96875 C 5.3125 7.792969 5.171875 7.65625 5 7.65625 Z M 5 7.65625 "/>
<path style=" stroke:none;fill-rule:nonzero;fill:rgb(26.27451%,29.019608%,32.941176%);fill-opacity:1;" d="M 5.625 8.28125 C 5.453125 8.28125 5.3125 8.421875 5.3125 8.59375 C 5.3125 8.765625 5.453125 8.90625 5.625 8.90625 C 5.796875 8.90625 5.9375 8.765625 5.9375 8.59375 C 5.9375 8.421875 5.796875 8.28125 5.625 8.28125 Z M 5.625 8.28125 "/>
<path style=" stroke:none;fill-rule:nonzero;fill:rgb(26.27451%,29.019608%,32.941176%);fill-opacity:1;" d="M 6.25 7.65625 C 6.078125 7.65625 5.9375 7.792969 5.9375 7.96875 C 5.9375 8.140625 6.078125 8.28125 6.25 8.28125 C 6.421875 8.28125 6.5625 8.140625 6.5625 7.96875 C 6.5625 7.792969 6.421875 7.65625 6.25 7.65625 Z M 6.25 7.65625 "/>
<path style=" stroke:none;fill-rule:nonzero;fill:rgb(26.27451%,29.019608%,32.941176%);fill-opacity:1;" d="M 6.875 8.28125 C 6.703125 8.28125 6.5625 8.421875 6.5625 8.59375 C 6.5625 8.765625 6.703125 8.90625 6.875 8.90625 C 7.046875 8.90625 7.1875 8.765625 7.1875 8.59375 C 7.1875 8.421875 7.046875 8.28125 6.875 8.28125 Z M 6.875 8.28125 "/>
<path style=" stroke:none;fill-rule:nonzero;fill:rgb(26.27451%,29.019608%,32.941176%);fill-opacity:1;" d="M 7.5 7.65625 C 7.328125 7.65625 7.1875 7.792969 7.1875 7.96875 C 7.1875 8.140625 7.328125 8.28125 7.5 8.28125 C 7.671875 8.28125 7.8125 8.140625 7.8125 7.96875 C 7.8125 7.792969 7.671875 7.65625 7.5 7.65625 Z M 7.5 7.65625 "/>
<path style=" stroke:none;fill-rule:nonzero;fill:rgb(26.27451%,29.019608%,32.941176%);fill-opacity:1;" d="M 8.125 8.28125 C 7.953125 8.28125 7.8125 8.421875 7.8125 8.59375 C 7.8125 8.765625 7.953125 8.90625 8.125 8.90625 C 8.296875 8.90625 8.4375 8.765625 8.4375 8.59375 C 8.4375 8.421875 8.296875 8.28125 8.125 8.28125 Z M 8.125 8.28125 "/>
<path style=" stroke:none;fill-rule:nonzero;fill:rgb(26.27451%,29.019608%,32.941176%);fill-opacity:1;" d="M 8.75 7.65625 C 8.578125 7.65625 8.4375 7.792969 8.4375 7.96875 C 8.4375 8.140625 8.578125 8.28125 8.75 8.28125 C 8.921875 8.28125 9.0625 8.140625 9.0625 7.96875 C 9.0625 7.792969 8.921875 7.65625 8.75 7.65625 Z M 8.75 7.65625 "/>
<path style=" stroke:none;fill-rule:nonzero;fill:rgb(26.27451%,29.019608%,32.941176%);fill-opacity:1;" d="M 9.375 8.28125 C 9.203125 8.28125 9.0625 8.421875 9.0625 8.59375 C 9.0625 8.765625 9.203125 8.90625 9.375 8.90625 C 9.546875 8.90625 9.6875 8.765625 9.6875 8.59375 C 9.6875 8.421875 9.546875 8.28125 9.375 8.28125 Z M 9.375 8.28125 "/>
<path style=" stroke:none;fill-rule:nonzero;fill:rgb(26.27451%,29.019608%,32.941176%);fill-opacity:1;" d="M 10 7.65625 C 9.828125 7.65625 9.6875 7.792969 9.6875 7.96875 C 9.6875 8.140625 9.828125 8.28125 10 8.28125 C 10.171875 8.28125 10.3125 8.140625 10.3125 7.96875 C 10.3125 7.792969 10.171875 7.65625 10 7.65625 Z M 10 7.65625 "/>
<path style=" stroke:none;fill-rule:nonzero;fill:rgb(96.078431%,96.862745%,98.039216%);fill-opacity:1;" d="M 11.25 9.84375 C 11.25 10.019531 11.390625 10.15625 11.5625 10.15625 C 11.734375 10.15625 11.875 10.019531 11.875 9.84375 C 11.875 9.671875 11.734375 9.53125 11.5625 9.53125 C 11.390625 9.53125 11.25 9.671875 11.25 9.84375 Z M 11.25 9.84375 "/>
<path style=" stroke:none;fill-rule:nonzero;fill:rgb(96.078431%,96.862745%,98.039216%);fill-opacity:1;" d="M 14.914062 7.953125 C 14.875 7.714844 14.820312 7.515625 14.738281 7.339844 L 13.746094 7.339844 C 13.574219 7.339844 13.433594 7.476562 13.433594 7.652344 C 13.433594 7.824219 13.574219 7.964844 13.746094 7.964844 L 14.835938 7.964844 C 14.863281 7.964844 14.890625 7.960938 14.914062 7.953125 Z M 14.914062 7.953125 "/>
<path style=" stroke:none;fill-rule:nonzero;fill:rgb(98.823529%,43.137255%,31.764706%);fill-opacity:1;" d="M 0.9375 6.402344 C 0.855469 6.402344 0.773438 6.4375 0.71875 6.492188 L 0.09375 7.117188 C 0.03125 7.175781 0 7.257812 0 7.339844 L 0.9375 7.339844 C 1.109375 7.339844 1.25 7.199219 1.25 7.027344 L 1.25 6.402344 Z M 0.9375 6.402344 "/>
</g>
</svg>
